<svg width="156" height="23" viewBox="0 0 156 23" fill="none" xmlns="http://www.w3.org/2000/svg">
<g clip-path="url(#clip0_108_170)">
<path d="M36.5327 15.9985C36.3734 16.9053 35.9162 17.7286 35.2374 18.3311C34.5585 18.9337 33.699 19.2792 32.8021 19.3099C32.4087 19.3223 32.0178 19.2408 31.6603 19.0716C31.3028 18.9025 30.9885 18.6504 30.7421 18.3353C30.4956 18.0202 30.3239 17.6506 30.2403 17.2556C30.1568 16.8607 30.1637 16.4513 30.2606 16.0596C30.4136 15.1554 30.8649 14.3327 31.5388 13.7297C32.2126 13.1268 33.0681 12.7802 33.9614 12.7482C34.3601 12.7207 34.7594 12.7919 35.1258 12.9558C35.4921 13.1196 35.8148 13.3714 36.0667 13.6898C36.3187 14.0083 36.4925 14.3842 36.5735 14.7859C36.6546 15.1877 36.6406 15.6035 36.5327 15.9985ZM37.7217 9.58941L37.4542 10.9323C37.1271 10.319 36.627 9.82174 36.0195 9.5058C35.412 9.18986 34.7256 9.07006 34.0506 9.16213C32.2171 9.2377 30.4658 9.96321 29.0946 11.2152C27.7234 12.4672 26.8172 14.1683 26.53 16.0291C25.876 19.7067 27.6001 22.9265 31.5685 22.9265C32.3269 22.9554 33.0817 22.8053 33.7748 22.4878C34.4679 22.1704 35.0808 21.694 35.5666 21.0953L35.3288 22.4687H39.0296L41.3631 9.63519H37.7217V9.58941ZM43.5182 9.60467H47.0109L46.7731 10.9475C47.1533 10.3596 47.6777 9.88494 48.2936 9.57148C48.9094 9.25802 49.5948 9.11682 50.2808 9.16213L49.5971 13.0229C47.8433 13.0229 46.6245 13.4196 46.2232 15.3881L44.945 22.4382H41.1847L43.5182 9.60467Z" fill="#363333"/>
<path d="M52.7926 4.56885L49.5674 22.4381H53.3277L54.4424 16.2426H54.5018L56.9096 22.4381H61.1455L57.8757 15.2355L63.5979 9.60459H59.1836L54.8585 14.2588H54.7991L56.5529 4.56885H52.7926Z" fill="#363333"/>
<path d="M65.8125 14.5946C66.0828 13.939 66.5362 13.3804 67.1156 12.9893C67.6949 12.5982 68.3742 12.3922 69.0675 12.3972C69.3704 12.3607 69.6775 12.3902 69.9686 12.4838C70.2597 12.5774 70.5283 12.7329 70.7569 12.9403C70.9855 13.1476 71.169 13.4021 71.2953 13.6872C71.4216 13.9722 71.488 14.2814 71.4901 14.5946H65.8125ZM69.6026 9.16211C67.7392 9.26434 65.9621 10.0009 64.5518 11.2554C63.1415 12.5099 62.1784 14.211 61.8144 16.0901C61.6191 16.9158 61.6124 17.7768 61.795 18.6056C61.9776 19.4344 62.3445 20.2087 62.867 20.8677C63.3894 21.5268 64.0533 22.0528 64.8067 22.4047C65.56 22.7565 66.3825 22.9247 67.2096 22.896C68.5452 22.8856 69.8499 22.4832 70.9699 21.7362C72.2565 20.9167 73.3321 19.7914 74.106 18.4553H70.2862C69.9791 18.8318 69.5946 19.1338 69.1603 19.3395C68.726 19.5453 68.2527 19.6499 67.7744 19.6456C67.4496 19.6844 67.1204 19.6494 66.8102 19.5429C66.5 19.4365 66.2164 19.2613 65.9795 19.0297C65.7426 18.7982 65.5583 18.516 65.4395 18.2031C65.3208 17.8902 65.2705 17.5543 65.2923 17.2193H74.6708C74.7971 16.8952 74.8868 16.5572 74.9383 16.2121C75.6517 12.2141 73.4223 9.16211 69.6026 9.16211Z" fill="#363333"/>
<path d="M21.5511 4.56885L14.952 14.7472H14.8925V4.56885H11.697L0 22.4381H4.53316L11.1025 12.2598H11.162V22.4381H14.3872L20.9566 12.2598H21.016V22.4381H24.7763V4.56885H21.5511ZM84.4356 9.60459H82.0724L82.7561 5.80489H79.4714L79.2039 7.33088C79.1258 7.99701 78.8049 8.60807 78.3058 9.0412C77.8067 9.47434 77.1665 9.69743 76.5137 9.66563L75.9489 12.504H77.8068L76.0084 22.4381H79.7389L81.5373 12.504H83.9303L84.4356 9.60459Z" fill="#363333"/>
<path d="M145.849 4.58417H149.579L148.45 10.9475C148.836 10.3477 149.373 9.86555 150.003 9.55147C150.633 9.23738 151.334 9.10291 152.032 9.16212C152.632 9.12851 153.232 9.2409 153.782 9.49016C154.332 9.73942 154.817 10.1185 155.197 10.5965C156 11.8478 155.911 12.9923 155.495 15.2813L154.216 22.4534H150.486L151.734 15.4644C151.853 14.854 152.21 12.7634 150.248 12.7634C149.588 12.7693 148.954 13.0299 148.472 13.4935C147.99 13.9571 147.696 14.5899 147.647 15.2661L146.354 22.4382H142.683L145.849 4.58417ZM130.124 9.60466H127.82L128.459 5.80496H125.175L124.848 7.2699C124.769 7.93603 124.449 8.54709 123.949 8.98023C123.45 9.41337 122.81 9.63646 122.157 9.60466L121.652 12.504H123.495L121.712 22.4382H125.442L127.226 12.504H129.619L130.124 9.60466ZM112.125 19.3099C113.035 19.2965 113.912 18.9589 114.606 18.3548C115.3 17.7508 115.768 16.9178 115.93 15.9985C116.038 15.6035 116.052 15.1876 115.971 14.7859C115.89 14.3842 115.716 14.0083 115.464 13.6898C115.212 13.3713 114.889 13.1196 114.523 12.9558C114.157 12.7919 113.757 12.7207 113.359 12.7482C112.465 12.7802 111.61 13.1268 110.936 13.7297C110.262 14.3327 109.811 15.1553 109.658 16.0596C109.561 16.4513 109.554 16.8607 109.638 17.2556C109.721 17.6506 109.893 18.0202 110.139 18.3353C110.386 18.6504 110.7 18.9025 111.058 19.0716C111.415 19.2408 111.806 19.3223 112.199 19.3099M118.501 22.3619H114.726L114.964 20.9885C114.479 21.6095 113.86 22.1055 113.156 22.4367C112.451 22.768 111.681 22.9252 110.906 22.896C106.938 22.896 105.199 19.6761 105.868 15.9985C106.161 14.1458 107.067 12.4537 108.435 11.2081C109.803 9.96251 111.547 9.23981 113.373 9.16212C114.042 9.08566 114.718 9.21625 115.314 9.53712C115.91 9.85798 116.399 10.3545 116.718 10.9628L116.985 9.61992H120.686L118.501 22.3619ZM111.322 0.00622559L104.04 4.58417H106.106L99.5065 14.7472V4.58417H96.2218L89.6227 14.7472V4.58417H85.803V22.4382H89.0579L95.657 12.2141V22.4382H98.8822L110.609 4.58417H112.452L111.322 0.00622559ZM142.326 17.5703C141.699 19.103 140.658 20.4193 139.325 21.3631C137.992 22.307 136.424 22.8389 134.806 22.896C133.958 22.9442 133.111 22.7858 132.335 22.4337C131.558 22.0816 130.874 21.5459 130.337 20.8702C129.801 20.1945 129.428 19.3981 129.249 18.5461C129.07 17.6941 129.089 16.8107 129.306 15.968C129.676 14.0833 130.659 12.3835 132.092 11.147C133.526 9.91055 135.327 9.21069 137.199 9.16212C137.919 9.11422 138.642 9.21825 139.322 9.4678C140.001 9.71736 140.624 10.1072 141.152 10.6132C141.68 11.1193 142.101 11.7308 142.39 12.4103C142.679 13.0898 142.829 13.8227 142.832 14.5641H139.042C138.934 14.0104 138.629 13.5177 138.186 13.182C137.744 12.8464 137.196 12.6917 136.649 12.7482C135.775 12.7625 134.936 13.0986 134.284 13.6953C133.632 14.2919 133.21 15.1094 133.096 15.9985C132.971 16.3807 132.938 16.7886 133 17.1869C133.062 17.5852 133.217 17.9621 133.453 18.285C133.688 18.6079 133.997 18.8671 134.351 19.0403C134.706 19.2136 135.097 19.2956 135.489 19.2794C136.084 19.2717 136.668 19.1113 137.187 18.8127C137.706 18.5142 138.145 18.0871 138.462 17.5703H142.282H142.326Z" fill="#4DB84D"/>
</g>
<defs>
<clipPath id="clip0_108_170">
<rect width="156" height="23" fill="white"/>
</clipPath>
</defs>
</svg>
